<?xml version="1.0" encoding="UTF-8" standalone="no"?>
<!-- Created with Inkscape (http://www.inkscape.org/) -->

<svg
   xmlns:dc="http://purl.org/dc/elements/1.1/"
   xmlns:cc="http://creativecommons.org/ns#"
   xmlns:rdf="http://www.w3.org/1999/02/22-rdf-syntax-ns#"
   xmlns:svg="http://www.w3.org/2000/svg"
   xmlns="http://www.w3.org/2000/svg"
   xmlns:sodipodi="http://sodipodi.sourceforge.net/DTD/sodipodi-0.dtd"
   xmlns:inkscape="http://www.inkscape.org/namespaces/inkscape"
   id="svg2"
   version="1.1"
   inkscape:version="0.91 r13725"
   xml:space="preserve"
   width="830"
   height="235"
   viewBox="0 0 830 235"
   sodipodi:docname="extended_approach.svg"><metadata
     id="metadata8"><rdf:RDF><cc:Work
         rdf:about=""><dc:format>image/svg+xml</dc:format><dc:type
           rdf:resource="http://purl.org/dc/dcmitype/StillImage" /><dc:title></dc:title></cc:Work></rdf:RDF></metadata><defs
     id="defs6"><marker
       inkscape:isstock="true"
       style="overflow:visible"
       id="marker6372"
       refX="0"
       refY="0"
       orient="auto"
       inkscape:stockid="TriangleOutL"><path
         transform="scale(0.8,0.8)"
         style="fill:#000000;fill-opacity:1;fill-rule:evenodd;stroke:#000000;stroke-width:1pt;stroke-opacity:1"
         d="m 5.77,0 -8.65,5 0,-10 8.65,5 z"
         id="path6374"
         inkscape:connector-curvature="0" /></marker><marker
       inkscape:stockid="TriangleOutL"
       orient="auto"
       refY="0"
       refX="0"
       id="marker6158"
       style="overflow:visible"
       inkscape:isstock="true"
       inkscape:collect="always"><path
         inkscape:connector-curvature="0"
         id="path6160"
         d="m 5.77,0 -8.65,5 0,-10 8.65,5 z"
         style="fill:#000000;fill-opacity:1;fill-rule:evenodd;stroke:#000000;stroke-width:1pt;stroke-opacity:1"
         transform="scale(0.8,0.8)" /></marker><marker
       inkscape:isstock="true"
       style="overflow:visible"
       id="marker19035"
       refX="0"
       refY="0"
       orient="auto"
       inkscape:stockid="TriangleOutL"
       inkscape:collect="always"><path
         transform="scale(0.8,0.8)"
         style="fill:#000000;fill-opacity:1;fill-rule:evenodd;stroke:#000000;stroke-width:1pt;stroke-opacity:1"
         d="m 5.77,0 -8.65,5 0,-10 8.65,5 z"
         id="path19037"
         inkscape:connector-curvature="0" /></marker><marker
       inkscape:isstock="true"
       style="overflow:visible"
       id="marker18214"
       refX="0"
       refY="0"
       orient="auto"
       inkscape:stockid="TriangleOutL"
       inkscape:collect="always"><path
         transform="scale(0.8,0.8)"
         style="fill:#000000;fill-opacity:1;fill-rule:evenodd;stroke:#000000;stroke-width:1pt;stroke-opacity:1"
         d="m 5.77,0 -8.65,5 0,-10 8.65,5 z"
         id="path18216"
         inkscape:connector-curvature="0" /></marker><marker
       inkscape:stockid="TriangleOutL"
       orient="auto"
       refY="0"
       refX="0"
       id="marker12811"
       style="overflow:visible"
       inkscape:isstock="true"><path
         id="path12813"
         d="m 5.77,0 -8.65,5 0,-10 8.65,5 z"
         style="fill:#cccccc;fill-opacity:1;fill-rule:evenodd;stroke:#999999;stroke-width:1pt;stroke-opacity:1"
         transform="scale(0.8,0.8)"
         inkscape:connector-curvature="0" /></marker><clipPath
       clipPathUnits="userSpaceOnUse"
       id="clipPath18"><path
         d="m 446.414,419.888 240,0 0,-180 -240,0 0,180 z"
         id="path20"
         inkscape:connector-curvature="0" /></clipPath><clipPath
       clipPathUnits="userSpaceOnUse"
       id="clipPath30"><path
         d="m 54.414,419.888 240,0 0,-180 -240,0 0,180 z"
         id="path32"
         inkscape:connector-curvature="0" /></clipPath><clipPath
       clipPathUnits="userSpaceOnUse"
       id="clipPath58"><path
         d="m 59.781,140.791 c 0,-1.707 2.317,-3.09 5.176,-3.09 2.859,0 5.176,1.383 5.176,3.09 0,1.707 -2.317,3.089 -5.176,3.089 -2.859,0 -5.176,-1.382 -5.176,-3.089"
         id="path60"
         inkscape:connector-curvature="0" /></clipPath><radialGradient
       fx="0"
       fy="0"
       cx="0"
       cy="0"
       r="1"
       gradientUnits="userSpaceOnUse"
       gradientTransform="matrix(5.176148,0,0,-3.090742,64.9564,140.79155)"
       spreadMethod="pad"
       id="radialGradient64"><stop
         style="stop-opacity:1;stop-color:#cfd1e7"
         offset="0"
         id="stop66" /><stop
         style="stop-opacity:1;stop-color:#405898"
         offset="1"
         id="stop68" /></radialGradient><clipPath
       clipPathUnits="userSpaceOnUse"
       id="clipPath76"><path
         d="m 22.336,243.322 337.262,0 0,-243.922 -337.262,0 0,243.922 z"
         id="path78"
         inkscape:connector-curvature="0" /></clipPath><clipPath
       clipPathUnits="userSpaceOnUse"
       id="clipPath84"><path
         d="m 59,138 12,0 0,7 -12,0 0,-7 z"
         id="path86"
         inkscape:connector-curvature="0" /></clipPath><clipPath
       clipPathUnits="userSpaceOnUse"
       id="clipPath102"><path
         d="m 52.145,140.791 c 0,-1.707 2.32,-3.09 5.179,-3.09 2.86,0 5.176,1.383 5.176,3.09 0,1.711 -2.316,3.089 -5.176,3.089 -2.859,0 -5.179,-1.378 -5.179,-3.089"
         id="path104"
         inkscape:connector-curvature="0" /></clipPath><radialGradient
       fx="0"
       fy="0"
       cx="0"
       cy="0"
       r="1"
       gradientUnits="userSpaceOnUse"
       gradientTransform="matrix(5.176596,0,0,-3.091022,57.32365,140.79155)"
       spreadMethod="pad"
       id="radialGradient108"><stop
         style="stop-opacity:1;stop-color:#fad5c9"
         offset="0"
         id="stop110" /><stop
         style="stop-opacity:1;stop-color:#e5493b"
         offset="1"
         id="stop112" /></radialGradient><clipPath
       clipPathUnits="userSpaceOnUse"
       id="clipPath120"><path
         d="m 52,138 11,0 0,7 -11,0 0,-7 z"
         id="path122"
         inkscape:connector-curvature="0" /></clipPath><clipPath
       clipPathUnits="userSpaceOnUse"
       id="clipPath138"><path
         d="m 146.582,140.791 c 0,-1.707 2.316,-3.09 5.176,-3.09 2.859,0 5.18,1.383 5.18,3.09 0,1.707 -2.321,3.089 -5.18,3.089 -2.86,0 -5.176,-1.382 -5.176,-3.089"
         id="path140"
         inkscape:connector-curvature="0" /></clipPath><radialGradient
       fx="0"
       fy="0"
       cx="0"
       cy="0"
       r="1"
       gradientUnits="userSpaceOnUse"
       gradientTransform="matrix(5.176596,0,0,-3.091022,151.76006,140.79155)"
       spreadMethod="pad"
       id="radialGradient144"><stop
         style="stop-opacity:1;stop-color:#cfd1e7"
         offset="0"
         id="stop146" /><stop
         style="stop-opacity:1;stop-color:#405898"
         offset="1"
         id="stop148" /></radialGradient><clipPath
       clipPathUnits="userSpaceOnUse"
       id="clipPath156"><path
         d="m 146,138 12,0 0,7 -12,0 0,-7 z"
         id="path158"
         inkscape:connector-curvature="0" /></clipPath><clipPath
       clipPathUnits="userSpaceOnUse"
       id="clipPath174"><path
         d="m 138.949,140.791 c 0,-1.707 2.321,-3.09 5.176,-3.09 2.859,0 5.18,1.383 5.18,3.09 0,1.711 -2.321,3.089 -5.18,3.089 -2.855,0 -5.176,-1.378 -5.176,-3.089"
         id="path176"
         inkscape:connector-curvature="0" /></clipPath><radialGradient
       fx="0"
       fy="0"
       cx="0"
       cy="0"
       r="1"
       gradientUnits="userSpaceOnUse"
       gradientTransform="matrix(5.176596,0,0,-3.091022,144.12513,140.79155)"
       spreadMethod="pad"
       id="radialGradient180"><stop
         style="stop-opacity:1;stop-color:#fad5c9"
         offset="0"
         id="stop182" /><stop
         style="stop-opacity:1;stop-color:#e5493b"
         offset="1"
         id="stop184" /></radialGradient><clipPath
       clipPathUnits="userSpaceOnUse"
       id="clipPath192"><path
         d="m 138,138 12,0 0,7 -12,0 0,-7 z"
         id="path194"
         inkscape:connector-curvature="0" /></clipPath><clipPath
       clipPathUnits="userSpaceOnUse"
       id="clipPath210"><path
         d="m 304.016,140.791 c 0,-1.707 2.32,-3.09 5.179,-3.09 2.856,0 5.176,1.383 5.176,3.09 0,1.707 -2.32,3.089 -5.176,3.089 -2.859,0 -5.179,-1.382 -5.179,-3.089"
         id="path212"
         inkscape:connector-curvature="0" /></clipPath><radialGradient
       fx="0"
       fy="0"
       cx="0"
       cy="0"
       r="1"
       gradientUnits="userSpaceOnUse"
       gradientTransform="matrix(5.176596,0,0,-3.091022,309.19235,140.79155)"
       spreadMethod="pad"
       id="radialGradient216"><stop
         style="stop-opacity:1;stop-color:#cfd1e7"
         offset="0"
         id="stop218" /><stop
         style="stop-opacity:1;stop-color:#405898"
         offset="1"
         id="stop220" /></radialGradient><clipPath
       clipPathUnits="userSpaceOnUse"
       id="clipPath228"><path
         d="m 303,138 12,0 0,7 -12,0 0,-7 z"
         id="path230"
         inkscape:connector-curvature="0" /></clipPath><clipPath
       clipPathUnits="userSpaceOnUse"
       id="clipPath246"><path
         d="m 270.363,140.791 c 0,-1.707 2.317,-3.09 5.176,-3.09 2.859,0 5.176,1.383 5.176,3.09 0,1.711 -2.317,3.089 -5.176,3.089 -2.859,0 -5.176,-1.378 -5.176,-3.089"
         id="path248"
         inkscape:connector-curvature="0" /></clipPath><radialGradient
       fx="0"
       fy="0"
       cx="0"
       cy="0"
       r="1"
       gradientUnits="userSpaceOnUse"
       gradientTransform="matrix(5.176148,0,0,-3.090742,275.53916,140.79155)"
       spreadMethod="pad"
       id="radialGradient252"><stop
         style="stop-opacity:1;stop-color:#fad5c9"
         offset="0"
         id="stop254" /><stop
         style="stop-opacity:1;stop-color:#e5493b"
         offset="1"
         id="stop256" /></radialGradient><clipPath
       clipPathUnits="userSpaceOnUse"
       id="clipPath264"><path
         d="m 270,138 11,0 0,7 -11,0 0,-7 z"
         id="path266"
         inkscape:connector-curvature="0" /></clipPath><clipPath
       clipPathUnits="userSpaceOnUse"
       id="clipPath282"><path
         d="m 287.188,140.791 c 0,-1.707 2.32,-3.09 5.179,-3.09 2.856,0 5.176,1.383 5.176,3.09 0,1.711 -2.32,3.089 -5.176,3.089 -2.859,0 -5.179,-1.378 -5.179,-3.089"
         id="path284"
         inkscape:connector-curvature="0" /></clipPath><radialGradient
       fx="0"
       fy="0"
       cx="0"
       cy="0"
       r="1"
       gradientUnits="userSpaceOnUse"
       gradientTransform="matrix(5.176596,0,0,-3.091022,292.36684,140.79155)"
       spreadMethod="pad"
       id="radialGradient288"><stop
         style="stop-opacity:1;stop-color:#e3f3f9"
         offset="0"
         id="stop290" /><stop
         style="stop-opacity:1;stop-color:#76c6e4"
         offset="1"
         id="stop292" /></radialGradient><clipPath
       clipPathUnits="userSpaceOnUse"
       id="clipPath300"><path
         d="m 287,138 11,0 0,7 -11,0 0,-7 z"
         id="path302"
         inkscape:connector-curvature="0" /></clipPath><clipPath
       clipPathUnits="userSpaceOnUse"
       id="clipPath318"><path
         d="m 182.973,142.607 0,-4.27 21.004,0 c 0.351,0 0.64,0.954 0.64,2.133 0,1.18 -0.289,2.137 -0.64,2.137 l -21.004,0 z"
         id="path320"
         inkscape:connector-curvature="0" /></clipPath><linearGradient
       x1="0"
       y1="0"
       x2="1"
       y2="0"
       gradientUnits="userSpaceOnUse"
       gradientTransform="matrix(0,4.268965,4.268965,0,193.7943,138.3373)"
       spreadMethod="pad"
       id="linearGradient324"><stop
         style="stop-opacity:1;stop-color:#647178"
         offset="0"
         id="stop326" /><stop
         style="stop-opacity:1;stop-color:#a6b1b7"
         offset="0.522842"
         id="stop328" /><stop
         style="stop-opacity:1;stop-color:#647178"
         offset="1"
         id="stop330" /></linearGradient><clipPath
       clipPathUnits="userSpaceOnUse"
       id="clipPath338"><path
         d="m 54,131 278,0 0,13 -278,0 0,-13 z"
         id="path340"
         inkscape:connector-curvature="0" /></clipPath><clipPath
       clipPathUnits="userSpaceOnUse"
       id="clipPath410"><path
         d="m 99.543,460.068 620.09,0 0,-460.668 -620.09,0 0,460.668 z"
         id="path412"
         inkscape:connector-curvature="0" /></clipPath><clipPath
       clipPathUnits="userSpaceOnUse"
       id="clipPath418"><path
         d="m 491,19 201,0 0,199 -201,0 0,-199 z"
         id="path420"
         inkscape:connector-curvature="0" /></clipPath><clipPath
       clipPathUnits="userSpaceOnUse"
       id="clipPath436"><path
         d="m 560.172,128.334 c -2.43,-2.43 -1.102,-7.7 2.969,-11.766 4.062,-4.066 9.328,-5.395 11.761,-2.965 2.426,2.43 1.098,7.695 -2.968,11.762 -2.692,2.691 -5.903,4.18 -8.473,4.18 -1.316,0 -2.465,-0.391 -3.289,-1.211"
         id="path438"
         inkscape:connector-curvature="0" /></clipPath><radialGradient
       fx="0"
       fy="0"
       cx="0"
       cy="0"
       r="1"
       gradientUnits="userSpaceOnUse"
       gradientTransform="matrix(7.364487,-7.364487,-4.397336,-4.397336,567.53757,120.96847)"
       spreadMethod="pad"
       id="radialGradient442"><stop
         style="stop-opacity:1;stop-color:#d3ebd3"
         offset="0"
         id="stop444" /><stop
         style="stop-opacity:1;stop-color:#37a25b"
         offset="1"
         id="stop446" /></radialGradient><clipPath
       clipPathUnits="userSpaceOnUse"
       id="clipPath454"><path
         d="m 558,112 19,0 0,19 -19,0 0,-19 z"
         id="path456"
         inkscape:connector-curvature="0" /></clipPath><clipPath
       clipPathUnits="userSpaceOnUse"
       id="clipPath472"><path
         d="m 570.184,130.146 c -2.426,-2.43 -1.102,-7.695 2.964,-11.762 4.071,-4.066 9.336,-5.394 11.766,-2.964 2.426,2.429 1.094,7.695 -2.969,11.757 -2.691,2.692 -5.906,4.184 -8.476,4.184 -1.317,0 -2.465,-0.391 -3.285,-1.215"
         id="path474"
         inkscape:connector-curvature="0" /></clipPath><radialGradient
       fx="0"
       fy="0"
       cx="0"
       cy="0"
       r="1"
       gradientUnits="userSpaceOnUse"
       gradientTransform="matrix(7.363952,-7.363952,-4.396986,-4.396986,577.5472,122.78548)"
       spreadMethod="pad"
       id="radialGradient478"><stop
         style="stop-opacity:1;stop-color:#fad5c9"
         offset="0"
         id="stop480" /><stop
         style="stop-opacity:1;stop-color:#e5493b"
         offset="1"
         id="stop482" /></radialGradient><clipPath
       clipPathUnits="userSpaceOnUse"
       id="clipPath490"><path
         d="m 568,114 19,0 0,19 -19,0 0,-19 z"
         id="path492"
         inkscape:connector-curvature="0" /></clipPath><clipPath
       clipPathUnits="userSpaceOnUse"
       id="clipPath508"><path
         d="m 555.566,119.56 c -2.429,-2.43 -1.101,-7.695 2.965,-11.762 4.063,-4.066 9.332,-5.39 11.766,-2.964 2.426,2.429 1.098,7.695 -2.969,11.761 -2.691,2.688 -5.906,4.18 -8.476,4.18 -1.317,0 -2.465,-0.395 -3.286,-1.215"
         id="path510"
         inkscape:connector-curvature="0" /></clipPath><radialGradient
       fx="0"
       fy="0"
       cx="0"
       cy="0"
       r="1"
       gradientUnits="userSpaceOnUse"
       gradientTransform="matrix(7.364487,-7.364487,-4.397336,-4.397336,562.92871,112.19698)"
       spreadMethod="pad"
       id="radialGradient514"><stop
         style="stop-opacity:1;stop-color:#fce5cf"
         offset="0"
         id="stop516" /><stop
         style="stop-opacity:1;stop-color:#ef8b3d"
         offset="1"
         id="stop518" /></radialGradient><clipPath
       clipPathUnits="userSpaceOnUse"
       id="clipPath526"><path
         d="m 554,103 18,0 0,19 -18,0 0,-19 z"
         id="path528"
         inkscape:connector-curvature="0" /></clipPath><clipPath
       clipPathUnits="userSpaceOnUse"
       id="clipPath544"><path
         d="m 566.777,113.068 c -2.425,-2.43 -1.101,-7.695 2.969,-11.762 4.066,-4.066 9.332,-5.398 11.762,-2.965 2.426,2.426 1.097,7.696 -2.969,11.758 -2.687,2.692 -5.902,4.184 -8.473,4.184 -1.316,0 -2.464,-0.395 -3.289,-1.215"
         id="path546"
         inkscape:connector-curvature="0" /></clipPath><radialGradient
       fx="0"
       fy="0"
       cx="0"
       cy="0"
       r="1"
       gradientUnits="userSpaceOnUse"
       gradientTransform="matrix(7.363952,-7.363952,-4.396986,-4.396986,574.14334,105.7048)"
       spreadMethod="pad"
       id="radialGradient550"><stop
         style="stop-opacity:1;stop-color:#e3f3f9"
         offset="0"
         id="stop552" /><stop
         style="stop-opacity:1;stop-color:#76c6e4"
         offset="1"
         id="stop554" /></radialGradient><clipPath
       clipPathUnits="userSpaceOnUse"
       id="clipPath562"><path
         d="m 565,97 18,0 0,19 -18,0 0,-19 z"
         id="path564"
         inkscape:connector-curvature="0" /></clipPath><clipPath
       clipPathUnits="userSpaceOnUse"
       id="clipPath580"><path
         d="m 574.578,120.431 c -2.43,-2.426 -1.098,-7.699 2.969,-11.761 4.066,-4.071 9.336,-5.395 11.762,-2.969 2.429,2.429 1.101,7.691 -2.969,11.765 -2.688,2.688 -5.902,4.176 -8.473,4.176 -1.316,0 -2.461,-0.39 -3.289,-1.211"
         id="path582"
         inkscape:connector-curvature="0" /></clipPath><radialGradient
       fx="0"
       fy="0"
       cx="0"
       cy="0"
       r="1"
       gradientUnits="userSpaceOnUse"
       gradientTransform="matrix(7.365043,-7.365043,-4.397686,-4.397686,581.944,113.06729)"
       spreadMethod="pad"
       id="radialGradient586"><stop
         style="stop-opacity:1;stop-color:#cfd1e7"
         offset="0"
         id="stop588" /><stop
         style="stop-opacity:1;stop-color:#405898"
         offset="1"
         id="stop590" /></radialGradient><clipPath
       clipPathUnits="userSpaceOnUse"
       id="clipPath598"><path
         d="m 573,104 18,0 0,19 -18,0 0,-19 z"
         id="path600"
         inkscape:connector-curvature="0" /></clipPath><clipPath
       clipPathUnits="userSpaceOnUse"
       id="clipPath616"><path
         d="m 591.363,113.724 0,-7.851 38.617,0 c 0.649,0 1.172,1.757 1.172,3.925 0,2.168 -0.523,3.926 -1.172,3.926 l -38.617,0 z"
         id="path618"
         inkscape:connector-curvature="0" /></clipPath><linearGradient
       x1="0"
       y1="0"
       x2="1"
       y2="0"
       gradientUnits="userSpaceOnUse"
       gradientTransform="matrix(0,7.848927,7.848927,0,611.25837,105.87263)"
       spreadMethod="pad"
       id="linearGradient622"><stop
         style="stop-opacity:1;stop-color:#647178"
         offset="0"
         id="stop624" /><stop
         style="stop-opacity:1;stop-color:#a6b1b7"
         offset="0.522842"
         id="stop626" /><stop
         style="stop-opacity:1;stop-color:#647178"
         offset="1"
         id="stop628" /></linearGradient><clipPath
       clipPathUnits="userSpaceOnUse"
       id="clipPath636"><path
         d="m 589,106 43,0 0,9 -43,0 0,-9 z"
         id="path638"
         inkscape:connector-curvature="0" /></clipPath><clipPath
       clipPathUnits="userSpaceOnUse"
       id="clipPath16"><path
         d="m 0,0.1 959.7,0 0,601.8 L 0,601.9 0,0.1 Z"
         id="path18"
         inkscape:connector-curvature="0"
         style="clip-rule:evenodd" /></clipPath><clipPath
       clipPathUnits="userSpaceOnUse"
       id="clipPath16-2"><path
         d="m 0,0.1 959.7,0 0,601.8 L 0,601.9 0,0.1 Z"
         id="path18-9"
         inkscape:connector-curvature="0"
         style="clip-rule:evenodd" /></clipPath><marker
       inkscape:stockid="TriangleOutL"
       orient="auto"
       refY="0"
       refX="0"
       id="TriangleOutL-1"
       style="overflow:visible"
       inkscape:isstock="true"><path
         inkscape:connector-curvature="0"
         id="path6045-8"
         d="m 5.77,0 -8.65,5 0,-10 8.65,5 z"
         style="fill:#000000;fill-opacity:1;fill-rule:evenodd;stroke:#000000;stroke-width:1pt;stroke-opacity:1"
         transform="scale(0.8,0.8)" /></marker><marker
       inkscape:stockid="TriangleOutL"
       orient="auto"
       refY="0"
       refX="0"
       id="TriangleOutL-6"
       style="overflow:visible"
       inkscape:isstock="true"><path
         inkscape:connector-curvature="0"
         id="path6045-4"
         d="m 5.77,0 -8.65,5 0,-10 8.65,5 z"
         style="fill:#000000;fill-opacity:1;fill-rule:evenodd;stroke:#000000;stroke-width:1pt;stroke-opacity:1"
         transform="scale(0.8,0.8)" /></marker><marker
       inkscape:stockid="TriangleOutL"
       orient="auto"
       refY="0"
       refX="0"
       id="TriangleOutL-6-3"
       style="overflow:visible"
       inkscape:isstock="true"><path
         inkscape:connector-curvature="0"
         id="path6045-4-8"
         d="m 5.77,0 -8.65,5 0,-10 8.65,5 z"
         style="fill:#000000;fill-opacity:1;fill-rule:evenodd;stroke:#000000;stroke-width:1pt;stroke-opacity:1"
         transform="scale(0.8,0.8)" /></marker><marker
       inkscape:stockid="TriangleOutL"
       orient="auto"
       refY="0"
       refX="0"
       id="TriangleOutL-1-6"
       style="overflow:visible"
       inkscape:isstock="true"><path
         inkscape:connector-curvature="0"
         id="path6045-8-0"
         d="m 5.77,0 -8.65,5 0,-10 8.65,5 z"
         style="fill:#000000;fill-opacity:1;fill-rule:evenodd;stroke:#000000;stroke-width:1pt;stroke-opacity:1"
         transform="scale(0.8,0.8)" /></marker><marker
       inkscape:stockid="TriangleOutL"
       orient="auto"
       refY="0"
       refX="0"
       id="TriangleOutL-7-4"
       style="overflow:visible"
       inkscape:isstock="true"><path
         inkscape:connector-curvature="0"
         id="path6045-5-8"
         d="m 5.77,0 -8.65,5 0,-10 8.65,5 z"
         style="fill:#000000;fill-opacity:1;fill-rule:evenodd;stroke:#000000;stroke-width:1pt;stroke-opacity:1"
         transform="scale(0.8,0.8)" /></marker><marker
       inkscape:stockid="TriangleOutL"
       orient="auto"
       refY="0"
       refX="0"
       id="TriangleOutL-8"
       style="overflow:visible"
       inkscape:isstock="true"><path
         inkscape:connector-curvature="0"
         id="path6045-89"
         d="m 5.77,0 -8.65,5 0,-10 8.65,5 z"
         style="fill:#000000;fill-opacity:1;fill-rule:evenodd;stroke:#000000;stroke-width:1pt;stroke-opacity:1"
         transform="scale(0.8,0.8)" /></marker><clipPath
       clipPathUnits="userSpaceOnUse"
       id="clipPath16-7"><path
         d="m 0,0.1 959.7,0 0,601.8 L 0,601.9 0,0.1 Z"
         id="path18-7"
         inkscape:connector-curvature="0"
         style="clip-rule:evenodd" /></clipPath><marker
       inkscape:stockid="TriangleOutL"
       orient="auto"
       refY="0"
       refX="0"
       id="TriangleOutL-6-9"
       style="overflow:visible"
       inkscape:isstock="true"><path
         inkscape:connector-curvature="0"
         id="path6045-4-0"
         d="m 5.77,0 -8.65,5 0,-10 8.65,5 z"
         style="fill:#000000;fill-opacity:1;fill-rule:evenodd;stroke:#000000;stroke-width:1pt;stroke-opacity:1"
         transform="scale(0.8,0.8)" /></marker><marker
       inkscape:stockid="TriangleOutL"
       orient="auto"
       refY="0"
       refX="0"
       id="TriangleOutL-1-3"
       style="overflow:visible"
       inkscape:isstock="true"><path
         inkscape:connector-curvature="0"
         id="path6045-8-3"
         d="m 5.77,0 -8.65,5 0,-10 8.65,5 z"
         style="fill:#000000;fill-opacity:1;fill-rule:evenodd;stroke:#000000;stroke-width:1pt;stroke-opacity:1"
         transform="scale(0.8,0.8)" /></marker><marker
       inkscape:stockid="TriangleOutL"
       orient="auto"
       refY="0"
       refX="0"
       id="TriangleOutL-7-3"
       style="overflow:visible"
       inkscape:isstock="true"><path
         inkscape:connector-curvature="0"
         id="path6045-5-7"
         d="m 5.77,0 -8.65,5 0,-10 8.65,5 z"
         style="fill:#000000;fill-opacity:1;fill-rule:evenodd;stroke:#000000;stroke-width:1pt;stroke-opacity:1"
         transform="scale(0.8,0.8)" /></marker><marker
       inkscape:stockid="TriangleOutL"
       orient="auto"
       refY="0"
       refX="0"
       id="TriangleOutL-3"
       style="overflow:visible"
       inkscape:isstock="true"><path
         inkscape:connector-curvature="0"
         id="path6045-2"
         d="m 5.77,0 -8.65,5 0,-10 8.65,5 z"
         style="fill:#000000;fill-opacity:1;fill-rule:evenodd;stroke:#000000;stroke-width:1pt;stroke-opacity:1"
         transform="scale(0.8,0.8)" /></marker><clipPath
       clipPathUnits="userSpaceOnUse"
       id="clipPath16-6"><path
         d="m 0,0.1 959.7,0 0,601.8 L 0,601.9 0,0.1 Z"
         id="path18-5"
         inkscape:connector-curvature="0"
         style="clip-rule:evenodd" /></clipPath><marker
       inkscape:stockid="TriangleOutL"
       orient="auto"
       refY="0"
       refX="0"
       id="TriangleOutL-6-97"
       style="overflow:visible"
       inkscape:isstock="true"><path
         inkscape:connector-curvature="0"
         id="path6045-4-5"
         d="m 5.77,0 -8.65,5 0,-10 8.65,5 z"
         style="fill:#000000;fill-opacity:1;fill-rule:evenodd;stroke:#000000;stroke-width:1pt;stroke-opacity:1"
         transform="scale(0.8,0.8)" /></marker><marker
       inkscape:stockid="TriangleOutL"
       orient="auto"
       refY="0"
       refX="0"
       id="TriangleOutL-1-64"
       style="overflow:visible"
       inkscape:isstock="true"><path
         inkscape:connector-curvature="0"
         id="path6045-8-6"
         d="m 5.77,0 -8.65,5 0,-10 8.65,5 z"
         style="fill:#000000;fill-opacity:1;fill-rule:evenodd;stroke:#000000;stroke-width:1pt;stroke-opacity:1"
         transform="scale(0.8,0.8)" /></marker><marker
       inkscape:stockid="TriangleOutL"
       orient="auto"
       refY="0"
       refX="0"
       id="TriangleOutL-7-37"
       style="overflow:visible"
       inkscape:isstock="true"><path
         inkscape:connector-curvature="0"
         id="path6045-5-9"
         d="m 5.77,0 -8.65,5 0,-10 8.65,5 z"
         style="fill:#000000;fill-opacity:1;fill-rule:evenodd;stroke:#000000;stroke-width:1pt;stroke-opacity:1"
         transform="scale(0.8,0.8)" /></marker><marker
       inkscape:stockid="TriangleOutL"
       orient="auto"
       refY="0"
       refX="0"
       id="TriangleOutL-74"
       style="overflow:visible"
       inkscape:isstock="true"><path
         inkscape:connector-curvature="0"
         id="path6045-9"
         d="m 5.77,0 -8.65,5 0,-10 8.65,5 z"
         style="fill:#000000;fill-opacity:1;fill-rule:evenodd;stroke:#000000;stroke-width:1pt;stroke-opacity:1"
         transform="scale(0.8,0.8)" /></marker><clipPath
       clipPathUnits="userSpaceOnUse"
       id="clipPath16-1"><path
         d="m 0,0.1 959.7,0 0,601.8 L 0,601.9 0,0.1 Z"
         id="path18-70"
         inkscape:connector-curvature="0"
         style="clip-rule:evenodd" /></clipPath><marker
       inkscape:stockid="TriangleOutL"
       orient="auto"
       refY="0"
       refX="0"
       id="TriangleOutL-6-37"
       style="overflow:visible"
       inkscape:isstock="true"><path
         inkscape:connector-curvature="0"
         id="path6045-4-4"
         d="m 5.77,0 -8.65,5 0,-10 8.65,5 z"
         style="fill:#000000;fill-opacity:1;fill-rule:evenodd;stroke:#000000;stroke-width:1pt;stroke-opacity:1"
         transform="scale(0.8,0.8)" /></marker><marker
       inkscape:stockid="TriangleOutL"
       orient="auto"
       refY="0"
       refX="0"
       id="TriangleOutL-1-1"
       style="overflow:visible"
       inkscape:isstock="true"><path
         inkscape:connector-curvature="0"
         id="path6045-8-1"
         d="m 5.77,0 -8.65,5 0,-10 8.65,5 z"
         style="fill:#000000;fill-opacity:1;fill-rule:evenodd;stroke:#000000;stroke-width:1pt;stroke-opacity:1"
         transform="scale(0.8,0.8)" /></marker><marker
       inkscape:stockid="TriangleOutL"
       orient="auto"
       refY="0"
       refX="0"
       id="TriangleOutL-7-30"
       style="overflow:visible"
       inkscape:isstock="true"><path
         inkscape:connector-curvature="0"
         id="path6045-5-3"
         d="m 5.77,0 -8.65,5 0,-10 8.65,5 z"
         style="fill:#000000;fill-opacity:1;fill-rule:evenodd;stroke:#000000;stroke-width:1pt;stroke-opacity:1"
         transform="scale(0.8,0.8)" /></marker><marker
       inkscape:stockid="TriangleOutL"
       orient="auto"
       refY="0"
       refX="0"
       id="TriangleOutL-2"
       style="overflow:visible"
       inkscape:isstock="true"><path
         inkscape:connector-curvature="0"
         id="path6045-1"
         d="m 5.77,0 -8.65,5 0,-10 8.65,5 z"
         style="fill:#000000;fill-opacity:1;fill-rule:evenodd;stroke:#000000;stroke-width:1pt;stroke-opacity:1"
         transform="scale(0.8,0.8)" /></marker><clipPath
       clipPathUnits="userSpaceOnUse"
       id="clipPath16-75"><path
         d="m 0,0.1 959.7,0 0,601.8 L 0,601.9 0,0.1 Z"
         id="path18-6"
         inkscape:connector-curvature="0"
         style="clip-rule:evenodd" /></clipPath><marker
       inkscape:isstock="true"
       style="overflow:visible"
       id="marker13182-8"
       refX="0"
       refY="0"
       orient="auto"
       inkscape:stockid="TriangleOutL"><path
         transform="scale(0.8,0.8)"
         style="fill:#000000;fill-opacity:1;fill-rule:evenodd;stroke:#000000;stroke-width:1pt;stroke-opacity:1"
         d="m 5.77,0 -8.65,5 0,-10 8.65,5 z"
         id="path13184-7"
         inkscape:connector-curvature="0" /></marker><marker
       inkscape:isstock="true"
       style="overflow:visible"
       id="marker13182-8-2"
       refX="0"
       refY="0"
       orient="auto"
       inkscape:stockid="TriangleOutL"><path
         transform="scale(0.8,0.8)"
         style="fill:#000000;fill-opacity:1;fill-rule:evenodd;stroke:#000000;stroke-width:1pt;stroke-opacity:1"
         d="m 5.77,0 -8.65,5 0,-10 8.65,5 z"
         id="path13184-7-3"
         inkscape:connector-curvature="0" /></marker><marker
       inkscape:isstock="true"
       style="overflow:visible"
       id="marker13182-7"
       refX="0"
       refY="0"
       orient="auto"
       inkscape:stockid="TriangleOutL"><path
         transform="scale(0.8,0.8)"
         style="fill:#000000;fill-opacity:1;fill-rule:evenodd;stroke:#000000;stroke-width:1pt;stroke-opacity:1"
         d="m 5.77,0 -8.65,5 0,-10 8.65,5 z"
         id="path13184-5"
         inkscape:connector-curvature="0" /></marker><marker
       inkscape:isstock="true"
       style="overflow:visible"
       id="marker13182-3"
       refX="0"
       refY="0"
       orient="auto"
       inkscape:stockid="TriangleOutL"><path
         transform="scale(0.8,0.8)"
         style="fill:#000000;fill-opacity:1;fill-rule:evenodd;stroke:#000000;stroke-width:1pt;stroke-opacity:1"
         d="m 5.77,0 -8.65,5 0,-10 8.65,5 z"
         id="path13184-6"
         inkscape:connector-curvature="0" /></marker><marker
       inkscape:stockid="TriangleOutL"
       orient="auto"
       refY="0"
       refX="0"
       id="marker10145"
       style="overflow:visible"
       inkscape:isstock="true"><path
         id="path10147"
         d="m 5.77,0 -8.65,5 0,-10 8.65,5 z"
         style="fill:#000000;fill-opacity:1;fill-rule:evenodd;stroke:#000000;stroke-width:1pt;stroke-opacity:1"
         transform="scale(0.8,0.8)"
         inkscape:connector-curvature="0" /></marker><marker
       inkscape:stockid="TriangleOutL"
       orient="auto"
       refY="0"
       refX="0"
       id="marker10145-2"
       style="overflow:visible"
       inkscape:isstock="true"><path
         id="path10147-0"
         d="m 5.77,0 -8.65,5 0,-10 8.65,5 z"
         style="fill:#000000;fill-opacity:1;fill-rule:evenodd;stroke:#000000;stroke-width:1pt;stroke-opacity:1"
         transform="scale(0.8,0.8)"
         inkscape:connector-curvature="0" /></marker><marker
       inkscape:stockid="TriangleOutL"
       orient="auto"
       refY="0"
       refX="0"
       id="marker7677-5"
       style="overflow:visible"
       inkscape:isstock="true"><path
         inkscape:connector-curvature="0"
         id="path7679-4"
         d="m 5.77,0 -8.65,5 0,-10 8.65,5 z"
         style="fill:#000000;fill-opacity:1;fill-rule:evenodd;stroke:#000000;stroke-width:1pt;stroke-opacity:1"
         transform="scale(0.8,0.8)" /></marker><clipPath
       clipPathUnits="userSpaceOnUse"
       id="clipPath16990"><circle
         style="fill:none;fill-opacity:1;stroke:#0000ff;stroke-width:1.60000002;stroke-miterlimit:4;stroke-dasharray:none;stroke-opacity:1"
         id="circle16992"
         cx="470.39996"
         cy="-225.59999"
         r="24" /></clipPath><marker
       inkscape:isstock="true"
       style="overflow:visible"
       id="marker19035-3"
       refX="0"
       refY="0"
       orient="auto"
       inkscape:stockid="TriangleOutL"><path
         transform="scale(0.8,0.8)"
         style="fill:#000000;fill-opacity:1;fill-rule:evenodd;stroke:#000000;stroke-width:1pt;stroke-opacity:1"
         d="m 5.77,0 -8.65,5 0,-10 8.65,5 z"
         id="path19037-5"
         inkscape:connector-curvature="0" /></marker><marker
       inkscape:isstock="true"
       style="overflow:visible"
       id="marker19035-3-2"
       refX="0"
       refY="0"
       orient="auto"
       inkscape:stockid="TriangleOutL"><path
         transform="scale(0.8,0.8)"
         style="fill:#000000;fill-opacity:1;fill-rule:evenodd;stroke:#000000;stroke-width:1pt;stroke-opacity:1"
         d="m 5.77,0 -8.65,5 0,-10 8.65,5 z"
         id="path19037-5-9"
         inkscape:connector-curvature="0" /></marker><marker
       inkscape:isstock="true"
       style="overflow:visible"
       id="marker19035-1"
       refX="0"
       refY="0"
       orient="auto"
       inkscape:stockid="TriangleOutL"><path
         transform="scale(0.8,0.8)"
         style="fill:#000000;fill-opacity:1;fill-rule:evenodd;stroke:#000000;stroke-width:1pt;stroke-opacity:1"
         d="m 5.77,0 -8.65,5 0,-10 8.65,5 z"
         id="path19037-2"
         inkscape:connector-curvature="0" /></marker><marker
       inkscape:stockid="TriangleOutL"
       orient="auto"
       refY="0"
       refX="0"
       id="marker6158-6"
       style="overflow:visible"
       inkscape:isstock="true"
       inkscape:collect="always"><path
         inkscape:connector-curvature="0"
         id="path6160-0"
         d="m 5.77,0 -8.65,5 0,-10 8.65,5 z"
         style="fill:#000000;fill-opacity:1;fill-rule:evenodd;stroke:#000000;stroke-width:1pt;stroke-opacity:1"
         transform="scale(0.8,0.8)" /></marker></defs><sodipodi:namedview
     pagecolor="#ffffff"
     bordercolor="#666666"
     borderopacity="1"
     objecttolerance="10"
     gridtolerance="10"
     guidetolerance="10"
     inkscape:pageopacity="0"
     inkscape:pageshadow="2"
     inkscape:window-width="1920"
     inkscape:window-height="1027"
     id="namedview4"
     showgrid="true"
     inkscape:zoom="1.0426527"
     inkscape:cx="257.44343"
     inkscape:cy="243.26106"
     inkscape:window-x="0"
     inkscape:window-y="0"
     inkscape:window-maximized="1"
     inkscape:current-layer="g656"
     showguides="true"><inkscape:grid
       type="xygrid"
       id="grid13172" /></sodipodi:namedview><g
     id="g10"
     inkscape:groupmode="layer"
     inkscape:label="3d_organization_of_the_genome"
     transform="matrix(1.25,0,0,-1.25,0,234.99999)"><g
       id="g12" /><g
       id="g656"><rect
         style="fill:#b4cccc;fill-opacity:1;stroke:none;stroke-width:2;stroke-miterlimit:4;stroke-dasharray:none;stroke-opacity:1"
         id="rect9999-8-4-6-6"
         width="145.81441"
         height="13.876253"
         x="60.450401"
         y="-119.13225"
         transform="scale(1,-1)" /><rect
         style="fill:#b4cccc;fill-opacity:1;stroke:none;stroke-width:2;stroke-miterlimit:4;stroke-dasharray:none;stroke-opacity:1"
         id="rect9999-8-4-6-7"
         width="105.8144"
         height="13.876253"
         x="518.73682"
         y="-119.13223"
         transform="scale(1,-1)" /><rect
         style="fill:#b4cccc;fill-opacity:1;stroke:none;stroke-width:2;stroke-miterlimit:4;stroke-dasharray:none;stroke-opacity:1"
         id="rect9999-8-4-6"
         width="119.2432"
         height="13.876253"
         x="204.45039"
         y="-119.13223"
         transform="scale(1,-1)" /><rect
         style="fill:#b4cccc;fill-opacity:1;stroke:none;stroke-width:2;stroke-miterlimit:4;stroke-dasharray:none;stroke-opacity:1"
         id="rect9999-8-4"
         width="171.49046"
         height="13.876253"
         x="323.54196"
         y="-119.13233"
         transform="scale(1,-1)" /><path
         style="fill:none;fill-rule:evenodd;stroke:#000000;stroke-width:1.81439996;stroke-linecap:butt;stroke-linejoin:miter;stroke-miterlimit:4;stroke-dasharray:none;stroke-opacity:1"
         d="m 46.4,112.54799 c 600,0 600,0 600,0"
         id="path9962-3-8"
         inkscape:connector-curvature="0" /><path
         style="fill:none;fill-rule:evenodd;stroke:#000000;stroke-width:1.81429136px;stroke-linecap:butt;stroke-linejoin:miter;stroke-opacity:1"
         d="m 205.3573,120.81189 c 0,-18.1429 0,-18.1429 0,-18.1429"
         id="path9964-4-1"
         inkscape:connector-curvature="0" /><path
         style="fill:none;fill-rule:evenodd;stroke:#000000;stroke-width:1.81429136px;stroke-linecap:butt;stroke-linejoin:miter;stroke-opacity:1"
         d="m 322.78653,120.81189 c 0,-18.1429 0,-18.1429 0,-18.1429"
         id="path9964-0-2-6"
         inkscape:connector-curvature="0" /><path
         style="fill:none;fill-rule:evenodd;stroke:#000000;stroke-width:1.81429136px;stroke-linecap:butt;stroke-linejoin:miter;stroke-opacity:1"
         d="m 623.64401,120.81141 c 0,-18.1429 0,-18.1429 0,-18.1429"
         id="path9964-6-2-8"
         inkscape:connector-curvature="0" /><path
         style="fill:none;fill-rule:evenodd;stroke:#000000;stroke-width:1.81429136px;stroke-linecap:butt;stroke-linejoin:miter;stroke-opacity:1"
         d="m 495.29796,120.81189 c 0,-18.1429 0,-18.1429 0,-18.1429"
         id="path9964-9-4-5"
         inkscape:connector-curvature="0" /><path
         style="fill:none;fill-rule:evenodd;stroke:#000000;stroke-width:1.81429136px;stroke-linecap:butt;stroke-linejoin:miter;stroke-opacity:1;marker-end:url(#marker18214)"
         d="m 386.78643,112.5478 c 0,27.21438 0,27.21438 0,27.21438 l 45.35731,0 0,0"
         id="path10001-5-2"
         inkscape:connector-curvature="0" /><rect
         style="fill:#b4cccc;fill-opacity:1;stroke:none;stroke-width:2;stroke-miterlimit:4;stroke-dasharray:none;stroke-opacity:1"
         id="rect9999-2-7-3-3"
         width="39.914413"
         height="7.2571654"
         x="-47.914413"
         y="-172.285"
         transform="scale(-1,-1)" /><text
         xml:space="preserve"
         style="font-style:normal;font-weight:normal;font-size:18px;line-height:125%;font-family:sans-serif;letter-spacing:0px;word-spacing:0px;fill:#000000;fill-opacity:1;stroke:none;stroke-width:1px;stroke-linecap:butt;stroke-linejoin:miter;stroke-opacity:1"
         x="54.984726"
         y="-162.08249"
         id="text4959"
         sodipodi:linespacing="125%"
         transform="scale(1,-1)"><tspan
           sodipodi:role="line"
           id="tspan4961"
           x="54.984726"
           y="-162.08249">Target region</tspan></text>
<text
         xml:space="preserve"
         style="font-style:normal;font-weight:normal;font-size:18px;line-height:125%;font-family:sans-serif;letter-spacing:0px;word-spacing:0px;fill:#000000;fill-opacity:1;stroke:none;stroke-width:1px;stroke-linecap:butt;stroke-linejoin:miter;stroke-opacity:1"
         x="14.625977"
         y="-18.912102"
         id="text4996"
         sodipodi:linespacing="125%"
         transform="scale(1,-1)"><tspan
           sodipodi:role="line"
           id="tspan4998"
           x="14.625977"
           y="-18.912102"
           style="font-size:14px">Extended approach: Multiple fragments within a specified range are targeted</tspan></text>
<path
         style="fill:none;fill-rule:evenodd;stroke:#000000;stroke-width:1.81429136px;stroke-linecap:butt;stroke-linejoin:miter;stroke-opacity:1"
         d="m 519.64401,120.81112 c 0,-18.1429 0,-18.1429 0,-18.1429"
         id="path9964-6-2-8-3"
         inkscape:connector-curvature="0" /><text
         xml:space="preserve"
         style="font-style:normal;font-weight:normal;font-size:18px;line-height:125%;font-family:sans-serif;letter-spacing:0px;word-spacing:0px;fill:#000000;fill-opacity:1;stroke:none;stroke-width:1px;stroke-linecap:butt;stroke-linejoin:miter;stroke-opacity:1"
         x="461.00919"
         y="-66.213661"
         id="text4996-3-7"
         sodipodi:linespacing="125%"
         transform="scale(1,-1)"><tspan
           sodipodi:role="line"
           id="tspan4998-6-5"
           x="461.00919"
           y="-66.213661"
           style="font-size:14px">Downstream size</tspan></text>
<path
         style="fill:none;fill-rule:evenodd;stroke:#000000;stroke-width:1.60000002;stroke-linecap:butt;stroke-linejoin:miter;stroke-miterlimit:4;stroke-dasharray:none;stroke-opacity:1;marker-end:url(#marker19035)"
         d="m 454.06338,71.301542 c -56,0 -56,0 -56,0"
         id="path4535"
         inkscape:connector-curvature="0" /><path
         style="fill:none;fill-rule:evenodd;stroke:#000000;stroke-width:1.60000002;stroke-linecap:butt;stroke-linejoin:miter;stroke-miterlimit:4;stroke-dasharray:none;stroke-opacity:1;marker-end:url(#marker19035-3)"
         d="m 589.84267,71.301602 c 56,0 56,0 56,0"
         id="path4535-6"
         inkscape:connector-curvature="0" /><text
         xml:space="preserve"
         style="font-style:normal;font-weight:normal;font-size:18px;line-height:125%;font-family:sans-serif;letter-spacing:0px;word-spacing:0px;fill:#000000;fill-opacity:1;stroke:none;stroke-width:1px;stroke-linecap:butt;stroke-linejoin:miter;stroke-opacity:1"
         x="203.32368"
         y="-66.213776"
         id="text4996-3-7-7"
         sodipodi:linespacing="125%"
         transform="scale(1,-1)"><tspan
           sodipodi:role="line"
           id="tspan4998-6-5-0"
           x="203.32368"
           y="-66.213776"
           style="font-size:14px">Upstream size</tspan></text>
<path
         style="fill:none;fill-rule:evenodd;stroke:#000000;stroke-width:1.60000002;stroke-linecap:butt;stroke-linejoin:miter;stroke-miterlimit:4;stroke-dasharray:none;stroke-opacity:1;marker-end:url(#marker6158)"
         d="m 197.31329,71.301654 c -68.93985,0 -68.93985,0 -68.93985,0"
         id="path4535-9"
         inkscape:connector-curvature="0" /><path
         style="fill:none;fill-rule:evenodd;stroke:#000000;stroke-width:1.60000002;stroke-linecap:butt;stroke-linejoin:miter;stroke-miterlimit:4;stroke-dasharray:none;stroke-opacity:1;marker-end:url(#marker6158-6)"
         d="m 309.34251,71.301654 c 68.93985,0 68.93985,0 68.93985,0"
         id="path4535-9-6"
         inkscape:connector-curvature="0" /><path
         style="fill:none;fill-rule:evenodd;stroke:#000000;stroke-width:1.81429136px;stroke-linecap:butt;stroke-linejoin:miter;stroke-opacity:1"
         d="m 61.357298,120.81189 c 0,-18.1429 0,-18.1429 0,-18.1429"
         id="path9964-4-1-3"
         inkscape:connector-curvature="0" /></g></g></svg>